<mxfile host="app.diagrams.net" agent="Mozilla/5.0 (X11; Ubuntu; Linux x86_64; rv:133.0) Gecko/20100101 Firefox/133.0" version="24.8.2">
  <diagram name="VPC Peering" id="BfJBYVwbmYD2d--w5A34">
    <mxGraphModel dx="1674" dy="792" grid="1" gridSize="10" guides="1" tooltips="1" connect="1" arrows="1" fold="1" page="1" pageScale="1" pageWidth="827" pageHeight="1169" math="0" shadow="0">
      <root>
        <mxCell id="0" />
        <mxCell id="1" parent="0" />
        <mxCell id="UQ3-S7Dx66AIJ2ZyxujE-1" value="VPC" style="sketch=0;outlineConnect=0;gradientColor=none;html=1;whiteSpace=wrap;fontSize=12;fontStyle=0;shape=mxgraph.aws4.group;grIcon=mxgraph.aws4.group_vpc;strokeColor=#879196;fillColor=none;verticalAlign=top;align=left;spacingLeft=30;fontColor=#879196;dashed=0;" vertex="1" parent="1">
          <mxGeometry x="80" y="80" width="240" height="360" as="geometry" />
        </mxCell>
        <mxCell id="UQ3-S7Dx66AIJ2ZyxujE-2" value="" style="rounded=1;arcSize=10;dashed=1;strokeColor=#F59D56;fillColor=none;gradientColor=none;dashPattern=8 4;strokeWidth=2;" vertex="1" parent="1">
          <mxGeometry x="100.25" y="110" width="199.5" height="199.5" as="geometry" />
        </mxCell>
        <mxCell id="UQ3-S7Dx66AIJ2ZyxujE-3" value="Marketing" style="sketch=0;points=[[0,0,0],[0.25,0,0],[0.5,0,0],[0.75,0,0],[1,0,0],[0,1,0],[0.25,1,0],[0.5,1,0],[0.75,1,0],[1,1,0],[0,0.25,0],[0,0.5,0],[0,0.75,0],[1,0.25,0],[1,0.5,0],[1,0.75,0]];outlineConnect=0;fontColor=#232F3E;fillColor=#ED7100;strokeColor=#ffffff;dashed=0;verticalLabelPosition=bottom;verticalAlign=top;align=center;html=1;fontSize=12;fontStyle=0;aspect=fixed;shape=mxgraph.aws4.resourceIcon;resIcon=mxgraph.aws4.ec2;" vertex="1" parent="1">
          <mxGeometry x="161" y="166" width="78" height="78" as="geometry" />
        </mxCell>
        <mxCell id="UQ3-S7Dx66AIJ2ZyxujE-4" value="VPC" style="sketch=0;outlineConnect=0;gradientColor=none;html=1;whiteSpace=wrap;fontSize=12;fontStyle=0;shape=mxgraph.aws4.group;grIcon=mxgraph.aws4.group_vpc;strokeColor=#879196;fillColor=none;verticalAlign=top;align=left;spacingLeft=30;fontColor=#879196;dashed=0;" vertex="1" parent="1">
          <mxGeometry x="390" y="440" width="340" height="340" as="geometry" />
        </mxCell>
        <mxCell id="UQ3-S7Dx66AIJ2ZyxujE-5" value="" style="rounded=1;arcSize=10;dashed=1;strokeColor=#F59D56;fillColor=none;gradientColor=none;dashPattern=8 4;strokeWidth=2;" vertex="1" parent="1">
          <mxGeometry x="470" y="570" width="199.5" height="199.5" as="geometry" />
        </mxCell>
        <mxCell id="UQ3-S7Dx66AIJ2ZyxujE-6" value="Financial" style="sketch=0;points=[[0,0,0],[0.25,0,0],[0.5,0,0],[0.75,0,0],[1,0,0],[0,1,0],[0.25,1,0],[0.5,1,0],[0.75,1,0],[1,1,0],[0,0.25,0],[0,0.5,0],[0,0.75,0],[1,0.25,0],[1,0.5,0],[1,0.75,0]];outlineConnect=0;fontColor=#232F3E;fillColor=#ED7100;strokeColor=#ffffff;dashed=0;verticalLabelPosition=bottom;verticalAlign=top;align=center;html=1;fontSize=12;fontStyle=0;aspect=fixed;shape=mxgraph.aws4.resourceIcon;resIcon=mxgraph.aws4.ec2;" vertex="1" parent="1">
          <mxGeometry x="530.75" y="626" width="78" height="78" as="geometry" />
        </mxCell>
        <mxCell id="UQ3-S7Dx66AIJ2ZyxujE-12" style="edgeStyle=orthogonalEdgeStyle;rounded=0;orthogonalLoop=1;jettySize=auto;html=1;" edge="1" parent="1" source="UQ3-S7Dx66AIJ2ZyxujE-10" target="UQ3-S7Dx66AIJ2ZyxujE-16">
          <mxGeometry relative="1" as="geometry" />
        </mxCell>
        <mxCell id="UQ3-S7Dx66AIJ2ZyxujE-10" value="VPC peering" style="outlineConnect=0;dashed=0;verticalLabelPosition=bottom;verticalAlign=top;align=center;html=1;shape=mxgraph.aws3.vpc_peering;fillColor=#F58536;gradientColor=none;" vertex="1" parent="1">
          <mxGeometry x="165.5" y="469" width="69" height="72" as="geometry" />
        </mxCell>
        <mxCell id="UQ3-S7Dx66AIJ2ZyxujE-14" value="Route table" style="sketch=0;outlineConnect=0;fontColor=#232F3E;gradientColor=none;strokeColor=#232F3E;fillColor=#ffffff;dashed=0;verticalLabelPosition=bottom;verticalAlign=top;align=center;html=1;fontSize=12;fontStyle=0;aspect=fixed;shape=mxgraph.aws4.resourceIcon;resIcon=mxgraph.aws4.route_table;" vertex="1" parent="1">
          <mxGeometry x="170" y="330" width="60" height="60" as="geometry" />
        </mxCell>
        <mxCell id="UQ3-S7Dx66AIJ2ZyxujE-15" style="edgeStyle=orthogonalEdgeStyle;rounded=0;orthogonalLoop=1;jettySize=auto;html=1;entryX=0.5;entryY=0;entryDx=0;entryDy=0;entryPerimeter=0;" edge="1" parent="1" source="UQ3-S7Dx66AIJ2ZyxujE-14" target="UQ3-S7Dx66AIJ2ZyxujE-10">
          <mxGeometry relative="1" as="geometry" />
        </mxCell>
        <mxCell id="UQ3-S7Dx66AIJ2ZyxujE-16" value="Route table" style="sketch=0;outlineConnect=0;fontColor=#232F3E;gradientColor=none;strokeColor=#232F3E;fillColor=#ffffff;dashed=0;verticalLabelPosition=bottom;verticalAlign=top;align=center;html=1;fontSize=12;fontStyle=0;aspect=fixed;shape=mxgraph.aws4.resourceIcon;resIcon=mxgraph.aws4.route_table;" vertex="1" parent="1">
          <mxGeometry x="530" y="475" width="60" height="60" as="geometry" />
        </mxCell>
        <mxCell id="UQ3-S7Dx66AIJ2ZyxujE-17" value="Security group" style="fillColor=none;strokeColor=#DD3522;verticalAlign=top;fontStyle=0;fontColor=#DD3522;whiteSpace=wrap;html=1;" vertex="1" parent="1">
          <mxGeometry x="490" y="590" width="160" height="160" as="geometry" />
        </mxCell>
        <mxCell id="UQ3-S7Dx66AIJ2ZyxujE-19" value="1" style="ellipse;whiteSpace=wrap;html=1;aspect=fixed;fontStyle=1" vertex="1" parent="1">
          <mxGeometry x="131" y="500" width="30" height="30" as="geometry" />
        </mxCell>
        <mxCell id="UQ3-S7Dx66AIJ2ZyxujE-20" value="2" style="ellipse;whiteSpace=wrap;html=1;aspect=fixed;fontStyle=1" vertex="1" parent="1">
          <mxGeometry x="234.5" y="345" width="30" height="30" as="geometry" />
        </mxCell>
        <mxCell id="UQ3-S7Dx66AIJ2ZyxujE-21" value="3" style="ellipse;whiteSpace=wrap;html=1;aspect=fixed;fontStyle=1" vertex="1" parent="1">
          <mxGeometry x="545" y="445" width="30" height="30" as="geometry" />
        </mxCell>
        <mxCell id="UQ3-S7Dx66AIJ2ZyxujE-22" value="4" style="ellipse;whiteSpace=wrap;html=1;aspect=fixed;fontStyle=1" vertex="1" parent="1">
          <mxGeometry x="490" y="590" width="30" height="30" as="geometry" />
        </mxCell>
        <mxCell id="UQ3-S7Dx66AIJ2ZyxujE-23" value="VPC" style="sketch=0;outlineConnect=0;gradientColor=none;html=1;whiteSpace=wrap;fontSize=12;fontStyle=0;shape=mxgraph.aws4.group;grIcon=mxgraph.aws4.group_vpc;strokeColor=#879196;fillColor=none;verticalAlign=top;align=left;spacingLeft=30;fontColor=#879196;dashed=0;" vertex="1" parent="1">
          <mxGeometry x="827" y="80" width="240" height="360" as="geometry" />
        </mxCell>
        <mxCell id="UQ3-S7Dx66AIJ2ZyxujE-24" value="" style="rounded=1;arcSize=10;dashed=1;strokeColor=#F59D56;fillColor=none;gradientColor=none;dashPattern=8 4;strokeWidth=2;" vertex="1" parent="1">
          <mxGeometry x="847.25" y="110" width="199.5" height="199.5" as="geometry" />
        </mxCell>
        <mxCell id="UQ3-S7Dx66AIJ2ZyxujE-25" value="Developer" style="sketch=0;points=[[0,0,0],[0.25,0,0],[0.5,0,0],[0.75,0,0],[1,0,0],[0,1,0],[0.25,1,0],[0.5,1,0],[0.75,1,0],[1,1,0],[0,0.25,0],[0,0.5,0],[0,0.75,0],[1,0.25,0],[1,0.5,0],[1,0.75,0]];outlineConnect=0;fontColor=#232F3E;fillColor=#ED7100;strokeColor=#ffffff;dashed=0;verticalLabelPosition=bottom;verticalAlign=top;align=center;html=1;fontSize=12;fontStyle=0;aspect=fixed;shape=mxgraph.aws4.resourceIcon;resIcon=mxgraph.aws4.ec2;" vertex="1" parent="1">
          <mxGeometry x="908" y="166" width="78" height="78" as="geometry" />
        </mxCell>
        <mxCell id="UQ3-S7Dx66AIJ2ZyxujE-26" value="Route table" style="sketch=0;outlineConnect=0;fontColor=#232F3E;gradientColor=none;strokeColor=#232F3E;fillColor=#ffffff;dashed=0;verticalLabelPosition=bottom;verticalAlign=top;align=center;html=1;fontSize=12;fontStyle=0;aspect=fixed;shape=mxgraph.aws4.resourceIcon;resIcon=mxgraph.aws4.route_table;" vertex="1" parent="1">
          <mxGeometry x="917" y="330" width="60" height="60" as="geometry" />
        </mxCell>
        <mxCell id="UQ3-S7Dx66AIJ2ZyxujE-27" value="2" style="ellipse;whiteSpace=wrap;html=1;aspect=fixed;fontStyle=1" vertex="1" parent="1">
          <mxGeometry x="981.5" y="345" width="30" height="30" as="geometry" />
        </mxCell>
        <mxCell id="UQ3-S7Dx66AIJ2ZyxujE-30" style="edgeStyle=orthogonalEdgeStyle;rounded=0;orthogonalLoop=1;jettySize=auto;html=1;" edge="1" parent="1" source="UQ3-S7Dx66AIJ2ZyxujE-28" target="UQ3-S7Dx66AIJ2ZyxujE-16">
          <mxGeometry relative="1" as="geometry" />
        </mxCell>
        <mxCell id="UQ3-S7Dx66AIJ2ZyxujE-28" value="VPC peering" style="outlineConnect=0;dashed=0;verticalLabelPosition=bottom;verticalAlign=top;align=center;html=1;shape=mxgraph.aws3.vpc_peering;fillColor=#F58536;gradientColor=none;" vertex="1" parent="1">
          <mxGeometry x="912.5" y="469" width="69" height="72" as="geometry" />
        </mxCell>
        <mxCell id="UQ3-S7Dx66AIJ2ZyxujE-29" style="edgeStyle=orthogonalEdgeStyle;rounded=0;orthogonalLoop=1;jettySize=auto;html=1;entryX=0.5;entryY=0;entryDx=0;entryDy=0;entryPerimeter=0;" edge="1" parent="1" source="UQ3-S7Dx66AIJ2ZyxujE-26" target="UQ3-S7Dx66AIJ2ZyxujE-28">
          <mxGeometry relative="1" as="geometry" />
        </mxCell>
      </root>
    </mxGraphModel>
  </diagram>
</mxfile>
